<?xml version="1.0" encoding="utf-8"?>
<!-- Generator: Adobe Illustrator 26.2.1, SVG Export Plug-In . SVG Version: 6.00 Build 0)  -->
<svg version="1.1" id="Layer_1" xmlns="http://www.w3.org/2000/svg" xmlns:xlink="http://www.w3.org/1999/xlink" x="0px" y="0px"
	 viewBox="0 0 1920 505.4" style="enable-background:new 0 0 1920 505.4;" xml:space="preserve">
<style type="text/css">
	.st0{clip-path:url(#SVGID_00000052096476037884669060000018070009322593446320_);}
	.st1{opacity:0.5;}
	.st2{clip-path:url(#SVGID_00000031888863150705046260000017121233806380327613_);}
	.st3{fill:#F0F1DC;}
	.st4{clip-path:url(#SVGID_00000084519724316006885440000002689872409269453225_);}
	.st5{clip-path:url(#SVGID_00000034773040591581688920000017582345730826579871_);}
	.st6{clip-path:url(#SVGID_00000078043053868796001000000003575806669942184370_);}
	.st7{clip-path:url(#SVGID_00000015333939724008352730000012452513154628943752_);}
	.st8{clip-path:url(#SVGID_00000065040470113998218810000013756490112417663631_);}
	.st9{clip-path:url(#SVGID_00000162316757427828647940000006102467175440922300_);}
	.st10{clip-path:url(#SVGID_00000062896577096515935110000014797660625515927701_);}
	.st11{clip-path:url(#SVGID_00000112619990311306396460000005588101483111647933_);}
	.st12{clip-path:url(#SVGID_00000099638529705073787800000000042903025124785827_);}
	.st13{clip-path:url(#SVGID_00000167389877832300497040000003445417286793092799_);}
	.st14{clip-path:url(#SVGID_00000158749281401557454910000008370115768752417465_);}
	.st15{clip-path:url(#SVGID_00000105416039825607341210000004152918776016426655_);}
	.st16{clip-path:url(#SVGID_00000087409848366970223260000005565406965755490731_);}
	.st17{clip-path:url(#SVGID_00000170261352593189188700000012722148783781846440_);}
	.st18{clip-path:url(#SVGID_00000106865303779036854860000009114518125677343368_);}
	.st19{clip-path:url(#SVGID_00000124147244632579991050000003742475443219395493_);}
	.st20{clip-path:url(#SVGID_00000113321905275348456070000000745664693439477424_);}
	.st21{clip-path:url(#SVGID_00000050640908389093615070000006815147911367479446_);}
	.st22{clip-path:url(#SVGID_00000093868551706441290590000010475037559452422556_);}
	.st23{clip-path:url(#SVGID_00000022538856336126226870000009880617016741281706_);}
	.st24{clip-path:url(#SVGID_00000007393398838015073150000017419370059924088969_);}
	.st25{clip-path:url(#SVGID_00000181798895498698633640000007231957165300190114_);}
	.st26{clip-path:url(#SVGID_00000124848712451041558160000005159685741506012840_);}
	.st27{clip-path:url(#SVGID_00000090276397569872765590000011471098421094601381_);}
	.st28{clip-path:url(#SVGID_00000178912407661184500090000001188954208270284458_);}
	.st29{clip-path:url(#SVGID_00000006700784880269054580000000323006260232983964_);}
	.st30{clip-path:url(#SVGID_00000059991373470622974370000007863618761760229811_);}
	.st31{clip-path:url(#SVGID_00000036955473096015384030000017223907237675062957_);}
	.st32{clip-path:url(#SVGID_00000007428417397846425990000016389544211060531111_);}
	.st33{clip-path:url(#SVGID_00000016039831058437586330000000085704276821669271_);}
	.st34{clip-path:url(#SVGID_00000083783380656781283290000009295856936420744320_);}
	.st35{clip-path:url(#SVGID_00000026154615114958436720000010260983563855836602_);}
	.st36{clip-path:url(#SVGID_00000042731458995561520320000002407887190709509248_);}
	.st37{clip-path:url(#SVGID_00000100346825705751041290000003179772447036977318_);}
	.st38{clip-path:url(#SVGID_00000178911039951072849320000006342310825694236861_);}
	.st39{clip-path:url(#SVGID_00000160187881342887463160000015964078487103536296_);}
	.st40{clip-path:url(#SVGID_00000026150044708066895740000010565066811017623947_);}
	.st41{clip-path:url(#SVGID_00000158747599759072299030000005256382127335408512_);}
	.st42{clip-path:url(#SVGID_00000056429909881703024370000006761240536684233610_);}
	.st43{clip-path:url(#SVGID_00000092449854936241861140000014487333833629656207_);}
	.st44{clip-path:url(#SVGID_00000067939874279891517070000005455338269369140640_);}
	.st45{clip-path:url(#SVGID_00000023980478885346509380000000077978059562472076_);}
	.st46{clip-path:url(#SVGID_00000103263967632618456390000000433903809394610852_);}
	.st47{clip-path:url(#SVGID_00000076591499821726890470000016170231106744714375_);}
	.st48{clip-path:url(#SVGID_00000000224981137815843510000016654213528794865045_);}
	.st49{clip-path:url(#SVGID_00000063601373794023607970000005957421958136931259_);}
	.st50{clip-path:url(#SVGID_00000016042336853860585140000005308911429270378666_);}
	.st51{clip-path:url(#SVGID_00000183943082768642247860000005946184340652082351_);}
	.st52{clip-path:url(#SVGID_00000002371609947908231600000006709795511579170188_);}
	.st53{clip-path:url(#SVGID_00000181079068433835626900000015702844672521898415_);}
	.st54{clip-path:url(#SVGID_00000082369117691632784080000017048200518749020054_);}
	.st55{clip-path:url(#SVGID_00000178205199069391006830000005876444811520362411_);}
	.st56{clip-path:url(#SVGID_00000106125802275996954880000006732144360556448130_);}
	.st57{clip-path:url(#SVGID_00000022520940052355483920000007513083010195486629_);}
	.st58{clip-path:url(#SVGID_00000160894707164692089320000012366731782305122442_);}
	.st59{clip-path:url(#SVGID_00000136395155475827755800000007980649213869603968_);}
	.st60{clip-path:url(#SVGID_00000150802282943601433440000013098868566024905366_);}
	.st61{clip-path:url(#SVGID_00000021806569674162317680000015361514498177980816_);}
	.st62{clip-path:url(#SVGID_00000060714372342806593820000012053148188360958101_);}
	.st63{clip-path:url(#SVGID_00000154384910241289379420000008346647079197506724_);}
	.st64{fill:#F1F2DD;}
</style>
<g id="a">
</g>
<g id="b">
	<g id="c">
		<g>
			<defs>
				<rect id="SVGID_1_" width="1920" height="555.4"/>
			</defs>
			<clipPath id="SVGID_00000155835837666642208490000015115383790928683657_">
				<use xlink:href="#SVGID_1_"  style="overflow:visible;"/>
			</clipPath>
			<g style="clip-path:url(#SVGID_00000155835837666642208490000015115383790928683657_);">
				<g class="st1">
					<g>
						<defs>
							<rect id="SVGID_00000039822401861647843720000008459481325671470483_" x="704.2" y="281.3" width="138.8" height="138.8"/>
						</defs>
						<clipPath id="SVGID_00000072250795540410965260000013725954654001527709_">
							<use xlink:href="#SVGID_00000039822401861647843720000008459481325671470483_"  style="overflow:visible;"/>
						</clipPath>
						<g style="clip-path:url(#SVGID_00000072250795540410965260000013725954654001527709_);">
							<path class="st3" d="M843,350.7c0,38.3-31.1,69.4-69.4,69.4s-69.4-31.1-69.4-69.4s31.1-69.4,69.4-69.4S843,312.4,843,350.7"
								/>
						</g>
					</g>
				</g>
				<g class="st1">
					<g>
						<defs>
							<rect id="SVGID_00000067205262994721394520000015759880545292681369_" x="599.1" y="256.8" width="138.8" height="138.8"/>
						</defs>
						<clipPath id="SVGID_00000137106626669558739600000007782484296112678321_">
							<use xlink:href="#SVGID_00000067205262994721394520000015759880545292681369_"  style="overflow:visible;"/>
						</clipPath>
						<g style="clip-path:url(#SVGID_00000137106626669558739600000007782484296112678321_);">
							<path class="st3" d="M737.9,326.2c0,38.3-31.1,69.4-69.4,69.4s-69.4-31.1-69.4-69.4s31.1-69.4,69.4-69.4
								S737.9,287.8,737.9,326.2"/>
						</g>
					</g>
				</g>
				<g class="st1">
					<g>
						<defs>
							<rect id="SVGID_00000013195009785579343980000008165186110793861801_" x="541" y="220.6" width="138.8" height="138.8"/>
						</defs>
						<clipPath id="SVGID_00000163769347753818747170000000531828716128081599_">
							<use xlink:href="#SVGID_00000013195009785579343980000008165186110793861801_"  style="overflow:visible;"/>
						</clipPath>
						<g style="clip-path:url(#SVGID_00000163769347753818747170000000531828716128081599_);">
							<path class="st3" d="M679.8,290c0,38.3-31.1,69.4-69.4,69.4S541,328.3,541,290s31.1-69.4,69.4-69.4S679.8,251.6,679.8,290"/>
						</g>
					</g>
				</g>
				<g class="st1">
					<g>
						<defs>
							<rect id="SVGID_00000182491328807842235210000007696813171330012033_" x="506.3" y="287.3" width="138.8" height="138.8"/>
						</defs>
						<clipPath id="SVGID_00000161594872455787649540000009824833254895270805_">
							<use xlink:href="#SVGID_00000182491328807842235210000007696813171330012033_"  style="overflow:visible;"/>
						</clipPath>
						<g style="clip-path:url(#SVGID_00000161594872455787649540000009824833254895270805_);">
							<path class="st3" d="M645.1,356.7c0,38.3-31.1,69.4-69.4,69.4s-69.4-31.1-69.4-69.4s31.1-69.4,69.4-69.4
								S645.1,318.3,645.1,356.7"/>
						</g>
					</g>
				</g>
				<g class="st1">
					<g>
						<defs>
							<rect id="SVGID_00000021115817455744360730000011385979987601961401_" x="460.4" y="251.6" width="138.8" height="138.8"/>
						</defs>
						<clipPath id="SVGID_00000086655500327952404640000014536779803073776305_">
							<use xlink:href="#SVGID_00000021115817455744360730000011385979987601961401_"  style="overflow:visible;"/>
						</clipPath>
						<g style="clip-path:url(#SVGID_00000086655500327952404640000014536779803073776305_);">
							<path class="st3" d="M599.1,320.9c0,38.3-31.1,69.4-69.4,69.4s-69.4-31.1-69.4-69.4s31.1-69.4,69.4-69.4
								S599.1,282.6,599.1,320.9"/>
						</g>
					</g>
				</g>
				<g class="st1">
					<g>
						<defs>
							<rect id="SVGID_00000175312636834767325170000005575768913965339556_" x="305.9" y="215.3" width="107.3" height="107.3"/>
						</defs>
						<clipPath id="SVGID_00000067231813928373198080000014912644157947591571_">
							<use xlink:href="#SVGID_00000175312636834767325170000005575768913965339556_"  style="overflow:visible;"/>
						</clipPath>
						<g style="clip-path:url(#SVGID_00000067231813928373198080000014912644157947591571_);">
							<path class="st3" d="M413.2,268.9c0,29.6-24,53.6-53.6,53.6s-53.6-24-53.6-53.6s24-53.6,53.6-53.6S413.2,239.3,413.2,268.9"
								/>
						</g>
					</g>
				</g>
				<g class="st1">
					<g>
						<defs>
							<rect id="SVGID_00000048476028599844360820000010050453925645076111_" x="373.2" y="352.5" width="59.3" height="59.3"/>
						</defs>
						<clipPath id="SVGID_00000126301603375343896750000007810426070404652417_">
							<use xlink:href="#SVGID_00000048476028599844360820000010050453925645076111_"  style="overflow:visible;"/>
						</clipPath>
						<g style="clip-path:url(#SVGID_00000126301603375343896750000007810426070404652417_);">
							<path class="st3" d="M432.5,382.2c0,16.4-13.3,29.6-29.6,29.6s-29.6-13.3-29.6-29.6s13.3-29.6,29.6-29.6
								S432.5,365.8,432.5,382.2"/>
						</g>
					</g>
				</g>
				<g class="st1">
					<g>
						<defs>
							<rect id="SVGID_00000063614981167891434940000006023733124916965780_" x="153.4" y="346.2" width="107.3" height="107.3"/>
						</defs>
						<clipPath id="SVGID_00000077302471281107910060000006447655602815465870_">
							<use xlink:href="#SVGID_00000063614981167891434940000006023733124916965780_"  style="overflow:visible;"/>
						</clipPath>
						<g style="clip-path:url(#SVGID_00000077302471281107910060000006447655602815465870_);">
							<path class="st3" d="M260.7,399.9c0,29.6-24,53.6-53.6,53.6s-53.6-24-53.6-53.6s24-53.6,53.6-53.6S260.7,370.2,260.7,399.9"
								/>
						</g>
					</g>
				</g>
				<g class="st1">
					<g>
						<defs>
							<rect id="SVGID_00000106106900987860128320000012881126502972433293_" x="181.7" y="341.9" width="107.3" height="107.3"/>
						</defs>
						<clipPath id="SVGID_00000064325441276487066910000000153155426204053415_">
							<use xlink:href="#SVGID_00000106106900987860128320000012881126502972433293_"  style="overflow:visible;"/>
						</clipPath>
						<g style="clip-path:url(#SVGID_00000064325441276487066910000000153155426204053415_);">
							<path class="st3" d="M289,395.5c0,29.6-24,53.6-53.6,53.6s-53.6-24-53.6-53.6s24-53.6,53.6-53.6S289,365.9,289,395.5"/>
						</g>
					</g>
				</g>
				<g class="st1">
					<g>
						<defs>
							<rect id="SVGID_00000132787644980593360760000000674811646756668545_" x="311.5" y="317.4" width="107.3" height="107.3"/>
						</defs>
						<clipPath id="SVGID_00000009567686672241155010000009445477801061208713_">
							<use xlink:href="#SVGID_00000132787644980593360760000000674811646756668545_"  style="overflow:visible;"/>
						</clipPath>
						<g style="clip-path:url(#SVGID_00000009567686672241155010000009445477801061208713_);">
							<path class="st3" d="M418.8,371c0,29.6-24,53.6-53.6,53.6s-53.6-24-53.6-53.6s24-53.6,53.6-53.6S418.8,341.4,418.8,371"/>
						</g>
					</g>
				</g>
				<g class="st1">
					<g>
						<defs>
							<rect id="SVGID_00000011012799361228244250000010396875447311244206_" x="351.1" y="281.3" width="138.8" height="138.8"/>
						</defs>
						<clipPath id="SVGID_00000009591616113928626510000014240846588981809046_">
							<use xlink:href="#SVGID_00000011012799361228244250000010396875447311244206_"  style="overflow:visible;"/>
						</clipPath>
						<g style="clip-path:url(#SVGID_00000009591616113928626510000014240846588981809046_);">
							<path class="st3" d="M489.9,350.7c0,38.3-31.1,69.4-69.4,69.4s-69.4-31.1-69.4-69.4s31.1-69.4,69.4-69.4
								S489.9,312.4,489.9,350.7"/>
						</g>
					</g>
				</g>
				<g class="st1">
					<g>
						<defs>
							<rect id="SVGID_00000021842262239351429510000009601578726333912228_" x="685.2" y="221.5" width="209.4" height="209.4"/>
						</defs>
						<clipPath id="SVGID_00000021084628559021256130000016294112664373413274_">
							<use xlink:href="#SVGID_00000021842262239351429510000009601578726333912228_"  style="overflow:visible;"/>
						</clipPath>
						<g style="clip-path:url(#SVGID_00000021084628559021256130000016294112664373413274_);">
							<path class="st3" d="M894.6,326.2c0,57.8-46.9,104.7-104.7,104.7S685.2,384,685.2,326.2S732,221.5,789.9,221.5
								S894.6,268.3,894.6,326.2"/>
						</g>
					</g>
				</g>
				<g class="st1">
					<g>
						<defs>
							<rect id="SVGID_00000079478499897033239770000012957549161977734580_" x="507.5" y="147.3" width="209.4" height="209.4"/>
						</defs>
						<clipPath id="SVGID_00000152230531731722429180000006252272826332388737_">
							<use xlink:href="#SVGID_00000079478499897033239770000012957549161977734580_"  style="overflow:visible;"/>
						</clipPath>
						<g style="clip-path:url(#SVGID_00000152230531731722429180000006252272826332388737_);">
							<path class="st3" d="M716.9,252c0,57.8-46.9,104.7-104.7,104.7S507.5,309.8,507.5,252s46.9-104.7,104.7-104.7
								S716.9,194.1,716.9,252"/>
						</g>
					</g>
				</g>
				<g class="st1">
					<g>
						<defs>
							<rect id="SVGID_00000142858922689925702750000005904087815238673055_" x="1474.7" y="308.4" width="122.5" height="122.5"/>
						</defs>
						<clipPath id="SVGID_00000132075695996241079960000015641405170736726174_">
							<use xlink:href="#SVGID_00000142858922689925702750000005904087815238673055_"  style="overflow:visible;"/>
						</clipPath>
						<g style="clip-path:url(#SVGID_00000132075695996241079960000015641405170736726174_);">
							<path class="st3" d="M1597.2,369.6c0,33.8-27.4,61.2-61.2,61.2s-61.2-27.4-61.2-61.2s27.4-61.2,61.2-61.2
								S1597.2,335.8,1597.2,369.6"/>
						</g>
					</g>
				</g>
				<g class="st1">
					<g>
						<defs>
							<rect id="SVGID_00000143585098802577893220000018193174311164323502_" x="1599.5" y="373.6" width="122.5" height="122.5"/>
						</defs>
						<clipPath id="SVGID_00000020380038200137619770000001506441830597656962_">
							<use xlink:href="#SVGID_00000143585098802577893220000018193174311164323502_"  style="overflow:visible;"/>
						</clipPath>
						<g style="clip-path:url(#SVGID_00000020380038200137619770000001506441830597656962_);">
							<path class="st3" d="M1722,434.9c0,33.8-27.4,61.2-61.2,61.2s-61.2-27.4-61.2-61.2s27.4-61.2,61.2-61.2
								S1722,401.1,1722,434.9"/>
						</g>
					</g>
				</g>
				<g class="st1">
					<g>
						<defs>
							<rect id="SVGID_00000143608885010332845520000007185734703497898899_" x="220.1" y="247.7" width="138.8" height="138.8"/>
						</defs>
						<clipPath id="SVGID_00000070085070535026071110000010083955061973948062_">
							<use xlink:href="#SVGID_00000143608885010332845520000007185734703497898899_"  style="overflow:visible;"/>
						</clipPath>
						<g style="clip-path:url(#SVGID_00000070085070535026071110000010083955061973948062_);">
							<path class="st3" d="M358.8,317c0,38.3-31.1,69.4-69.4,69.4s-69.4-31.1-69.4-69.4s31.1-69.4,69.4-69.4S358.8,278.7,358.8,317
								"/>
						</g>
					</g>
				</g>
				<g class="st1">
					<g>
						<defs>
							<rect id="SVGID_00000148643281161812360470000002626569875698414002_" x="119.9" y="301.6" width="138.8" height="138.8"/>
						</defs>
						<clipPath id="SVGID_00000019636195362771916790000016341857015214264753_">
							<use xlink:href="#SVGID_00000148643281161812360470000002626569875698414002_"  style="overflow:visible;"/>
						</clipPath>
						<g style="clip-path:url(#SVGID_00000019636195362771916790000016341857015214264753_);">
							<path class="st3" d="M258.7,371c0,38.3-31.1,69.4-69.4,69.4s-69.4-31.1-69.4-69.4s31.1-69.4,69.4-69.4S258.7,332.7,258.7,371
								"/>
						</g>
					</g>
				</g>
				<g class="st1">
					<g>
						<defs>
							<rect id="SVGID_00000077282847803728464140000010551576427121456047_" x="82.3" y="239" width="138.8" height="138.8"/>
						</defs>
						<clipPath id="SVGID_00000080204230775310255690000014559698922695557811_">
							<use xlink:href="#SVGID_00000077282847803728464140000010551576427121456047_"  style="overflow:visible;"/>
						</clipPath>
						<g style="clip-path:url(#SVGID_00000080204230775310255690000014559698922695557811_);">
							<path class="st3" d="M221.1,308.4c0,38.3-31.1,69.4-69.4,69.4s-69.4-31.1-69.4-69.4s31.1-69.4,69.4-69.4
								S221.1,270,221.1,308.4"/>
						</g>
					</g>
				</g>
				<g class="st1">
					<g>
						<path class="st3" d="M159.2,343.7c0,38.3-31.1,69.4-69.4,69.4S20.4,382,20.4,343.7s31.1-69.4,69.4-69.4
							S159.2,305.3,159.2,343.7"/>
					</g>
				</g>
				<g class="st1">
					<g>
						<defs>
							<rect id="SVGID_00000147939510341374519260000007842869969653821095_" x="-26.5" y="326.2" width="138.8" height="138.8"/>
						</defs>
						<clipPath id="SVGID_00000080916079882961200830000017646604679973069986_">
							<use xlink:href="#SVGID_00000147939510341374519260000007842869969653821095_"  style="overflow:visible;"/>
						</clipPath>
						<g style="clip-path:url(#SVGID_00000080916079882961200830000017646604679973069986_);">
							<path class="st3" d="M112.2,395.5c0,38.3-31.1,69.4-69.4,69.4s-69.4-31.1-69.4-69.4s31.1-69.4,69.4-69.4
								S112.2,357.2,112.2,395.5"/>
						</g>
					</g>
				</g>
				<g class="st1">
					<g>
						<defs>
							<rect id="SVGID_00000054971117683752860100000005657155126470336426_" x="50.5" y="326.2" width="138.8" height="138.8"/>
						</defs>
						<clipPath id="SVGID_00000013907068918783784690000009036130821493594776_">
							<use xlink:href="#SVGID_00000054971117683752860100000005657155126470336426_"  style="overflow:visible;"/>
						</clipPath>
						<g style="clip-path:url(#SVGID_00000013907068918783784690000009036130821493594776_);">
							<path class="st3" d="M189.3,395.5c0,38.3-31.1,69.4-69.4,69.4s-69.4-31.1-69.4-69.4s31.1-69.4,69.4-69.4
								S189.3,357.2,189.3,395.5"/>
						</g>
					</g>
				</g>
				<g class="st1">
					<g>
						<defs>
							<rect id="SVGID_00000124140871760586584570000015854180127317640123_" x="1024.8" y="194.9" width="138.8" height="138.8"/>
						</defs>
						<clipPath id="SVGID_00000171691697436567275340000016589142170519044518_">
							<use xlink:href="#SVGID_00000124140871760586584570000015854180127317640123_"  style="overflow:visible;"/>
						</clipPath>
						<g style="clip-path:url(#SVGID_00000171691697436567275340000016589142170519044518_);">
							<path class="st3" d="M1163.6,264.3c0,38.3-31.1,69.4-69.4,69.4s-69.4-31.1-69.4-69.4s31.1-69.4,69.4-69.4
								S1163.6,226,1163.6,264.3"/>
						</g>
					</g>
				</g>
				<g class="st1">
					<g>
						<defs>
							<rect id="SVGID_00000115498973307641669130000004100928996616843937_" x="979.9" y="274.3" width="138.8" height="138.8"/>
						</defs>
						<clipPath id="SVGID_00000127022714564570499120000000695359758247816108_">
							<use xlink:href="#SVGID_00000115498973307641669130000004100928996616843937_"  style="overflow:visible;"/>
						</clipPath>
						<g style="clip-path:url(#SVGID_00000127022714564570499120000000695359758247816108_);">
							<path class="st3" d="M1118.7,343.7c0,38.3-31.1,69.4-69.4,69.4s-69.4-31.1-69.4-69.4s31.1-69.4,69.4-69.4
								C1087.6,274.3,1118.7,305.3,1118.7,343.7"/>
						</g>
					</g>
				</g>
				<g class="st1">
					<g>
						<defs>
							<rect id="SVGID_00000054244931546756380550000007608373404632788638_" x="1039.2" y="326.2" width="138.8" height="138.8"/>
						</defs>
						<clipPath id="SVGID_00000006666182563462878410000002922488501546332054_">
							<use xlink:href="#SVGID_00000054244931546756380550000007608373404632788638_"  style="overflow:visible;"/>
						</clipPath>
						<g style="clip-path:url(#SVGID_00000006666182563462878410000002922488501546332054_);">
							<path class="st3" d="M1178,395.5c0,38.3-31.1,69.4-69.4,69.4s-69.4-31.1-69.4-69.4s31.1-69.4,69.4-69.4
								S1178,357.2,1178,395.5"/>
						</g>
					</g>
				</g>
				<g class="st1">
					<g>
						<defs>
							<rect id="SVGID_00000124855961125034859720000010551058914840047768_" x="1108.6" y="247.7" width="138.8" height="138.8"/>
						</defs>
						<clipPath id="SVGID_00000171718098930380300510000013686702575505017790_">
							<use xlink:href="#SVGID_00000124855961125034859720000010551058914840047768_"  style="overflow:visible;"/>
						</clipPath>
						<g style="clip-path:url(#SVGID_00000171718098930380300510000013686702575505017790_);">
							<path class="st3" d="M1247.4,317c0,38.3-31.1,69.4-69.4,69.4s-69.4-31.1-69.4-69.4s31.1-69.4,69.4-69.4
								S1247.4,278.7,1247.4,317"/>
						</g>
					</g>
				</g>
				<g class="st1">
					<g>
						<defs>
							<rect id="SVGID_00000091736711897438681730000010533264670933979781_" x="1153.5" y="281.3" width="138.8" height="138.8"/>
						</defs>
						<clipPath id="SVGID_00000016036566806276300340000012075328680816553898_">
							<use xlink:href="#SVGID_00000091736711897438681730000010533264670933979781_"  style="overflow:visible;"/>
						</clipPath>
						<g style="clip-path:url(#SVGID_00000016036566806276300340000012075328680816553898_);">
							<path class="st3" d="M1292.3,350.7c0,38.3-31.1,69.4-69.4,69.4s-69.4-31.1-69.4-69.4s31.1-69.4,69.4-69.4
								S1292.3,312.4,1292.3,350.7"/>
						</g>
					</g>
				</g>
				<g class="st1">
					<g>
						<defs>
							<rect id="SVGID_00000141424352669728353050000004821977086780184708_" x="1274.3" y="256.4" width="104" height="104"/>
						</defs>
						<clipPath id="SVGID_00000158027796396315441170000016127267256008752568_">
							<use xlink:href="#SVGID_00000141424352669728353050000004821977086780184708_"  style="overflow:visible;"/>
						</clipPath>
						<g style="clip-path:url(#SVGID_00000158027796396315441170000016127267256008752568_);">
							<path class="st3" d="M1378.3,308.4c0,28.7-23.3,52-52,52s-52-23.3-52-52s23.3-52,52-52S1378.3,279.6,1378.3,308.4"/>
						</g>
					</g>
				</g>
				<g class="st1">
					<g>
						<path class="st3" d="M1523.7,386.4c0,38.3-31.1,69.4-69.4,69.4s-69.4-31.1-69.4-69.4s31.1-69.4,69.4-69.4
							S1523.7,348.1,1523.7,386.4"/>
					</g>
				</g>
				<g class="st1">
					<g>
						<defs>
							<rect id="SVGID_00000082330548391396913920000002094380912351112638_" x="1495.3" y="251.6" width="138.8" height="138.8"/>
						</defs>
						<clipPath id="SVGID_00000010302478099247610390000009980244452816567680_">
							<use xlink:href="#SVGID_00000082330548391396913920000002094380912351112638_"  style="overflow:visible;"/>
						</clipPath>
						<g style="clip-path:url(#SVGID_00000010302478099247610390000009980244452816567680_);">
							<path class="st3" d="M1634.1,320.9c0,38.3-31.1,69.4-69.4,69.4s-69.4-31.1-69.4-69.4s31.1-69.4,69.4-69.4
								S1634.1,282.6,1634.1,320.9"/>
						</g>
					</g>
				</g>
				<g class="st1">
					<g>
						<defs>
							<rect id="SVGID_00000004511950754526799780000008336180126616882623_" x="1557.1" y="302.2" width="159.3" height="159.3"/>
						</defs>
						<clipPath id="SVGID_00000143606009140142210090000000246455437986404287_">
							<use xlink:href="#SVGID_00000004511950754526799780000008336180126616882623_"  style="overflow:visible;"/>
						</clipPath>
						<g style="clip-path:url(#SVGID_00000143606009140142210090000000246455437986404287_);">
							<path class="st3" d="M1716.4,381.8c0,44-35.7,79.6-79.7,79.6s-79.7-35.7-79.7-79.6s35.7-79.6,79.7-79.6
								S1716.4,337.8,1716.4,381.8"/>
						</g>
					</g>
				</g>
				<g class="st1">
					<g>
						<defs>
							<rect id="SVGID_00000109031604738007752940000000325447208527889284_" x="1352.9" y="353.3" width="138.8" height="138.8"/>
						</defs>
						<clipPath id="SVGID_00000132806969770368611380000008315905780735464071_">
							<use xlink:href="#SVGID_00000109031604738007752940000000325447208527889284_"  style="overflow:visible;"/>
						</clipPath>
						<g style="clip-path:url(#SVGID_00000132806969770368611380000008315905780735464071_);">
							<path class="st3" d="M1491.7,422.7c0,38.3-31.1,69.4-69.4,69.4s-69.4-31.1-69.4-69.4s31.1-69.4,69.4-69.4
								S1491.7,384.4,1491.7,422.7"/>
						</g>
					</g>
				</g>
				<g class="st1">
					<g>
						<defs>
							<rect id="SVGID_00000135686032797174774980000010415395727108432794_" x="1636.5" y="187.4" width="138.8" height="138.8"/>
						</defs>
						<clipPath id="SVGID_00000149374440380739579970000010497244976610274232_">
							<use xlink:href="#SVGID_00000135686032797174774980000010415395727108432794_"  style="overflow:visible;"/>
						</clipPath>
						<g style="clip-path:url(#SVGID_00000149374440380739579970000010497244976610274232_);">
							<path class="st3" d="M1775.3,256.8c0,38.3-31.1,69.4-69.4,69.4s-69.4-31.1-69.4-69.4s31.1-69.4,69.4-69.4
								S1775.3,218.4,1775.3,256.8"/>
						</g>
					</g>
				</g>
				<g class="st1">
					<g>
						<defs>
							<rect id="SVGID_00000022523720995949113920000015782218915759098269_" x="1705.9" y="251.6" width="138.8" height="138.8"/>
						</defs>
						<clipPath id="SVGID_00000008844701055478460620000003988702330823045513_">
							<use xlink:href="#SVGID_00000022523720995949113920000015782218915759098269_"  style="overflow:visible;"/>
						</clipPath>
						<g style="clip-path:url(#SVGID_00000008844701055478460620000003988702330823045513_);">
							<path class="st3" d="M1844.7,320.9c0,38.3-31.1,69.4-69.4,69.4s-69.4-31.1-69.4-69.4s31.1-69.4,69.4-69.4
								S1844.7,282.6,1844.7,320.9"/>
						</g>
					</g>
				</g>
				<g class="st1">
					<g>
						<defs>
							<rect id="SVGID_00000093859859257214235120000015533647765749849225_" x="1817" y="232.2" width="138.8" height="138.8"/>
						</defs>
						<clipPath id="SVGID_00000003825562569907473510000002366308624778398382_">
							<use xlink:href="#SVGID_00000093859859257214235120000015533647765749849225_"  style="overflow:visible;"/>
						</clipPath>
						<g style="clip-path:url(#SVGID_00000003825562569907473510000002366308624778398382_);">
							<path class="st3" d="M1955.8,301.6c0,38.3-31.1,69.4-69.4,69.4s-69.4-31.1-69.4-69.4s31.1-69.4,69.4-69.4
								S1955.8,263.3,1955.8,301.6"/>
						</g>
					</g>
				</g>
				<g class="st1">
					<g>
						<defs>
							<rect id="SVGID_00000150782458702395795960000012142281093190290608_" x="1768" y="281.3" width="138.8" height="138.8"/>
						</defs>
						<clipPath id="SVGID_00000008860730459086779000000003007471886566079390_">
							<use xlink:href="#SVGID_00000150782458702395795960000012142281093190290608_"  style="overflow:visible;"/>
						</clipPath>
						<g style="clip-path:url(#SVGID_00000008860730459086779000000003007471886566079390_);">
							<path class="st3" d="M1906.8,350.7c0,38.3-31.1,69.4-69.4,69.4S1768,389,1768,350.7s31.1-69.4,69.4-69.4
								S1906.8,312.4,1906.8,350.7"/>
						</g>
					</g>
				</g>
				<g class="st1">
					<g>
						<defs>
							<rect id="SVGID_00000062153880260858597940000018109458320878269348_" x="1624.5" y="247.7" width="138.8" height="138.8"/>
						</defs>
						<clipPath id="SVGID_00000151515253432588050100000012094659624350825602_">
							<use xlink:href="#SVGID_00000062153880260858597940000018109458320878269348_"  style="overflow:visible;"/>
						</clipPath>
						<g style="clip-path:url(#SVGID_00000151515253432588050100000012094659624350825602_);">
							<path class="st3" d="M1763.3,317c0,38.3-31.1,69.4-69.4,69.4s-69.4-31.1-69.4-69.4s31.1-69.4,69.4-69.4
								S1763.3,278.7,1763.3,317"/>
						</g>
					</g>
				</g>
				<g class="st1">
					<g>
						<defs>
							<rect id="SVGID_00000049195952583338093890000004762999332442161567_" x="1316.8" y="269" width="166.5" height="166.5"/>
						</defs>
						<clipPath id="SVGID_00000108289801602697762890000006990420409085525656_">
							<use xlink:href="#SVGID_00000049195952583338093890000004762999332442161567_"  style="overflow:visible;"/>
						</clipPath>
						<g style="clip-path:url(#SVGID_00000108289801602697762890000006990420409085525656_);">
							<path class="st3" d="M1483.3,352.2c0,46-37.3,83.3-83.3,83.3s-83.3-37.3-83.3-83.3s37.3-83.3,83.3-83.3
								S1483.3,306.2,1483.3,352.2"/>
						</g>
					</g>
				</g>
				<g class="st1">
					<g>
						<defs>
							<rect id="SVGID_00000010996421696235275750000001768145733251962047_" x="1235.9" y="294.8" width="166.5" height="166.5"/>
						</defs>
						<clipPath id="SVGID_00000121253303938804664070000004621396371877408645_">
							<use xlink:href="#SVGID_00000010996421696235275750000001768145733251962047_"  style="overflow:visible;"/>
						</clipPath>
						<g style="clip-path:url(#SVGID_00000121253303938804664070000004621396371877408645_);">
							<path class="st3" d="M1402.4,378c0,46-37.3,83.3-83.3,83.3s-83.3-37.3-83.3-83.3s37.3-83.3,83.3-83.3
								S1402.4,332.1,1402.4,378"/>
						</g>
					</g>
				</g>
				<g class="st1">
					<g>
						<defs>
							<rect id="SVGID_00000142883574183499646080000015545762783335823287_" x="1182.4" y="182.2" width="138.8" height="138.8"/>
						</defs>
						<clipPath id="SVGID_00000038404770169992105230000007649514179518025406_">
							<use xlink:href="#SVGID_00000142883574183499646080000015545762783335823287_"  style="overflow:visible;"/>
						</clipPath>
						<g style="clip-path:url(#SVGID_00000038404770169992105230000007649514179518025406_);">
							<path class="st3" d="M1321.2,251.6c0,38.3-31.1,69.4-69.4,69.4s-69.4-31.1-69.4-69.4s31.1-69.4,69.4-69.4
								S1321.2,213.2,1321.2,251.6"/>
						</g>
					</g>
				</g>
				<g class="st1">
					<g>
						<defs>
							<rect id="SVGID_00000115501443003548265780000007251366528834195359_" x="999.1" y="288.1" width="204.4" height="204.4"/>
						</defs>
						<clipPath id="SVGID_00000063594527116677725270000008085576299481973379_">
							<use xlink:href="#SVGID_00000115501443003548265780000007251366528834195359_"  style="overflow:visible;"/>
						</clipPath>
						<g style="clip-path:url(#SVGID_00000063594527116677725270000008085576299481973379_);">
							<path class="st3" d="M1203.4,390.3c0,56.4-45.8,102.2-102.2,102.2s-102.2-45.8-102.2-102.2s45.8-102.2,102.2-102.2
								S1203.4,333.9,1203.4,390.3"/>
						</g>
					</g>
				</g>
				<g class="st1">
					<g>
						<defs>
							<rect id="SVGID_00000146459600936553491230000004045181198297854642_" x="443.6" y="317.9" width="204.4" height="204.4"/>
						</defs>
						<clipPath id="SVGID_00000163778234197140459930000006544956258557774468_">
							<use xlink:href="#SVGID_00000146459600936553491230000004045181198297854642_"  style="overflow:visible;"/>
						</clipPath>
						<g style="clip-path:url(#SVGID_00000163778234197140459930000006544956258557774468_);">
							<path class="st3" d="M648,420.1c0,56.4-45.8,102.2-102.2,102.2s-102.2-45.8-102.2-102.2s45.8-102.2,102.2-102.2
								S648,363.6,648,420.1"/>
						</g>
					</g>
				</g>
				<g class="st1">
					<g>
						<defs>
							<rect id="SVGID_00000134937501654628722040000006435850709822685601_" x="1178" y="330.5" width="97.8" height="97.8"/>
						</defs>
						<clipPath id="SVGID_00000031920136251351395680000006535950153594574746_">
							<use xlink:href="#SVGID_00000134937501654628722040000006435850709822685601_"  style="overflow:visible;"/>
						</clipPath>
						<g style="clip-path:url(#SVGID_00000031920136251351395680000006535950153594574746_);">
							<path class="st3" d="M1275.8,379.4c0,27-21.9,48.9-48.9,48.9s-48.9-21.9-48.9-48.9s21.9-48.9,48.9-48.9
								S1275.8,352.4,1275.8,379.4"/>
						</g>
					</g>
				</g>
				<g class="st1">
					<g>
						<defs>
							<rect id="SVGID_00000039094337144675882790000005083502780082696837_" x="1212.1" y="290" width="138.8" height="138.8"/>
						</defs>
						<clipPath id="SVGID_00000146457250956839556160000008722694696211845264_">
							<use xlink:href="#SVGID_00000039094337144675882790000005083502780082696837_"  style="overflow:visible;"/>
						</clipPath>
						<g style="clip-path:url(#SVGID_00000146457250956839556160000008722694696211845264_);">
							<path class="st3" d="M1350.9,359.3c0,38.3-31.1,69.4-69.4,69.4s-69.4-31.1-69.4-69.4s31.1-69.4,69.4-69.4
								S1350.9,321,1350.9,359.3"/>
						</g>
					</g>
				</g>
				<g class="st1">
					<g>
						<defs>
							<rect id="SVGID_00000042696413662855695020000013918206666077198780_" x="1017.4" y="220.6" width="138.8" height="138.8"/>
						</defs>
						<clipPath id="SVGID_00000048459616345857102200000011102949655131374770_">
							<use xlink:href="#SVGID_00000042696413662855695020000013918206666077198780_"  style="overflow:visible;"/>
						</clipPath>
						<g style="clip-path:url(#SVGID_00000048459616345857102200000011102949655131374770_);">
							<path class="st3" d="M1156.2,290c0,38.3-31.1,69.4-69.4,69.4s-69.4-31.1-69.4-69.4s31.1-69.4,69.4-69.4
								S1156.2,251.6,1156.2,290"/>
						</g>
					</g>
				</g>
				<g class="st1">
					<g>
						<defs>
							<rect id="SVGID_00000054969909458643317320000017914039942867192219_" x="943.3" y="269" width="138.8" height="138.8"/>
						</defs>
						<clipPath id="SVGID_00000054248734534644101260000015304646302627656855_">
							<use xlink:href="#SVGID_00000054969909458643317320000017914039942867192219_"  style="overflow:visible;"/>
						</clipPath>
						<g style="clip-path:url(#SVGID_00000054248734534644101260000015304646302627656855_);">
							<path class="st3" d="M1082.1,338.3c0,38.3-31.1,69.4-69.4,69.4s-69.4-31.1-69.4-69.4s31.1-69.4,69.4-69.4
								C1051,268.9,1082.1,300,1082.1,338.3"/>
						</g>
					</g>
				</g>
				<g class="st1">
					<g>
						<defs>
							<rect id="SVGID_00000031166981463320725330000014474426054303629999_" x="654.9" y="135.8" width="138.8" height="138.8"/>
						</defs>
						<clipPath id="SVGID_00000066495820122341805880000003262503184463669414_">
							<use xlink:href="#SVGID_00000031166981463320725330000014474426054303629999_"  style="overflow:visible;"/>
						</clipPath>
						<g style="clip-path:url(#SVGID_00000066495820122341805880000003262503184463669414_);">
							<path class="st3" d="M793.7,205.2c0,38.3-31.1,69.4-69.4,69.4s-69.4-31.1-69.4-69.4s31.1-69.4,69.4-69.4
								S793.7,166.9,793.7,205.2"/>
						</g>
					</g>
				</g>
				<g class="st1">
					<g>
						<defs>
							<rect id="SVGID_00000034781401909648835800000004398180378532927400_" x="636.7" y="199.6" width="138.8" height="138.8"/>
						</defs>
						<clipPath id="SVGID_00000178192661644678871940000001682037056166442395_">
							<use xlink:href="#SVGID_00000034781401909648835800000004398180378532927400_"  style="overflow:visible;"/>
						</clipPath>
						<g style="clip-path:url(#SVGID_00000178192661644678871940000001682037056166442395_);">
							<path class="st3" d="M775.5,268.9c0,38.3-31.1,69.4-69.4,69.4s-69.4-31.1-69.4-69.4s31.1-69.4,69.4-69.4
								S775.5,230.6,775.5,268.9"/>
						</g>
					</g>
				</g>
				<g class="st1">
					<g>
						<defs>
							<rect id="SVGID_00000072256962423453604920000012149197361008162211_" x="607" y="274.3" width="138.8" height="138.8"/>
						</defs>
						<clipPath id="SVGID_00000073688521002328491690000005905911704991075255_">
							<use xlink:href="#SVGID_00000072256962423453604920000012149197361008162211_"  style="overflow:visible;"/>
						</clipPath>
						<g style="clip-path:url(#SVGID_00000073688521002328491690000005905911704991075255_);">
							<path class="st3" d="M745.8,343.7c0,38.3-31.1,69.4-69.4,69.4S607,382,607,343.7s31.1-69.4,69.4-69.4
								S745.8,305.3,745.8,343.7"/>
						</g>
					</g>
				</g>
				<g class="st1">
					<g>
						<defs>
							<rect id="SVGID_00000034086429467397220800000008427329346368068794_" x="436.9" y="301.6" width="138.8" height="138.8"/>
						</defs>
						<clipPath id="SVGID_00000008135807863636039170000012970266037642334613_">
							<use xlink:href="#SVGID_00000034086429467397220800000008427329346368068794_"  style="overflow:visible;"/>
						</clipPath>
						<g style="clip-path:url(#SVGID_00000008135807863636039170000012970266037642334613_);">
							<path class="st3" d="M575.7,371c0,38.3-31.1,69.4-69.4,69.4s-69.4-31.1-69.4-69.4s31.1-69.4,69.4-69.4S575.7,332.7,575.7,371
								"/>
						</g>
					</g>
				</g>
				<g class="st1">
					<g>
						<defs>
							<rect id="SVGID_00000010300102360349884660000002420856776234109095_" x="324.8" y="274.3" width="138.8" height="138.8"/>
						</defs>
						<clipPath id="SVGID_00000023978398745598731510000011242379756698729886_">
							<use xlink:href="#SVGID_00000010300102360349884660000002420856776234109095_"  style="overflow:visible;"/>
						</clipPath>
						<g style="clip-path:url(#SVGID_00000023978398745598731510000011242379756698729886_);">
							<path class="st3" d="M463.6,343.7c0,38.3-31.1,69.4-69.4,69.4s-69.4-31.1-69.4-69.4s31.1-69.4,69.4-69.4
								S463.6,305.3,463.6,343.7"/>
						</g>
					</g>
				</g>
				<g class="st1">
					<g>
						<defs>
							<rect id="SVGID_00000133508873126501922740000009500238748731896461_" x="255.4" y="301.6" width="138.8" height="138.8"/>
						</defs>
						<clipPath id="SVGID_00000172405062764386567000000009186240022297871262_">
							<use xlink:href="#SVGID_00000133508873126501922740000009500238748731896461_"  style="overflow:visible;"/>
						</clipPath>
						<g style="clip-path:url(#SVGID_00000172405062764386567000000009186240022297871262_);">
							<path class="st3" d="M394.2,371c0,38.3-31.1,69.4-69.4,69.4s-69.4-31.1-69.4-69.4s31.1-69.4,69.4-69.4S394.2,332.7,394.2,371
								"/>
						</g>
					</g>
				</g>
				<g class="st1">
					<g>
						<defs>
							<rect id="SVGID_00000047034114482496506440000002857648149895189417_" x="463.6" y="209.3" width="59.3" height="59.3"/>
						</defs>
						<clipPath id="SVGID_00000115499555158937300590000006073545496001523638_">
							<use xlink:href="#SVGID_00000047034114482496506440000002857648149895189417_"  style="overflow:visible;"/>
						</clipPath>
						<g style="clip-path:url(#SVGID_00000115499555158937300590000006073545496001523638_);">
							<path class="st3" d="M522.9,239c0,16.4-13.3,29.6-29.6,29.6s-29.6-13.3-29.6-29.6s13.3-29.6,29.6-29.6S522.9,222.6,522.9,239
								"/>
						</g>
					</g>
				</g>
				<g class="st1">
					<g>
						<defs>
							<rect id="SVGID_00000065052649862374682690000015375842346626354086_" x="117.3" y="357.5" width="59.3" height="59.3"/>
						</defs>
						<clipPath id="SVGID_00000036226717949519408960000003652993341939084161_">
							<use xlink:href="#SVGID_00000065052649862374682690000015375842346626354086_"  style="overflow:visible;"/>
						</clipPath>
						<g style="clip-path:url(#SVGID_00000036226717949519408960000003652993341939084161_);">
							<path class="st3" d="M176.6,387.1c0,16.4-13.3,29.6-29.6,29.6s-29.6-13.3-29.6-29.6s13.3-29.6,29.6-29.6
								S176.6,370.8,176.6,387.1"/>
						</g>
					</g>
				</g>
				<g class="st1">
					<g>
						<defs>
							<rect id="SVGID_00000160881080525776285180000008055990064750490552_" x="36.4" y="239" width="47.4" height="47.4"/>
						</defs>
						<clipPath id="SVGID_00000082330306281916658550000001270886129794969489_">
							<use xlink:href="#SVGID_00000160881080525776285180000008055990064750490552_"  style="overflow:visible;"/>
						</clipPath>
						<g style="clip-path:url(#SVGID_00000082330306281916658550000001270886129794969489_);">
							<path class="st3" d="M83.9,262.7c0,13.1-10.6,23.7-23.7,23.7s-23.7-10.6-23.7-23.7S47,239,60.2,239S83.9,249.6,83.9,262.7"/>
						</g>
					</g>
				</g>
				<g class="st1">
					<g>
						<defs>
							<rect id="SVGID_00000133492154656066438530000006749018116572469923_" x="1442.1" y="286.2" width="47.4" height="47.4"/>
						</defs>
						<clipPath id="SVGID_00000047028509304084145940000001240017792682055334_">
							<use xlink:href="#SVGID_00000133492154656066438530000006749018116572469923_"  style="overflow:visible;"/>
						</clipPath>
						<g style="clip-path:url(#SVGID_00000047028509304084145940000001240017792682055334_);">
							<path class="st3" d="M1489.5,309.9c0,13.1-10.6,23.7-23.7,23.7s-23.7-10.6-23.7-23.7s10.6-23.7,23.7-23.7
								S1489.5,296.8,1489.5,309.9"/>
						</g>
					</g>
				</g>
				<g class="st1">
					<g>
						<defs>
							<rect id="SVGID_00000179625321296314962500000016709777069812347781_" x="1293.1" y="220.6" width="47.4" height="47.4"/>
						</defs>
						<clipPath id="SVGID_00000134940396725876339150000017275494034726139294_">
							<use xlink:href="#SVGID_00000179625321296314962500000016709777069812347781_"  style="overflow:visible;"/>
						</clipPath>
						<g style="clip-path:url(#SVGID_00000134940396725876339150000017275494034726139294_);">
							<path class="st3" d="M1340.5,244.3c0,13.1-10.6,23.7-23.7,23.7s-23.7-10.6-23.7-23.7s10.6-23.7,23.7-23.7
								S1340.5,231.2,1340.5,244.3"/>
						</g>
					</g>
				</g>
				<g class="st1">
					<g>
						<defs>
							<rect id="SVGID_00000088103982273948000110000001359835731634153624_" x="999.8" y="168.8" width="47.4" height="47.4"/>
						</defs>
						<clipPath id="SVGID_00000078728449816367700640000015457651492507757186_">
							<use xlink:href="#SVGID_00000088103982273948000110000001359835731634153624_"  style="overflow:visible;"/>
						</clipPath>
						<g style="clip-path:url(#SVGID_00000078728449816367700640000015457651492507757186_);">
							<path class="st3" d="M1047.2,192.5c0,13.1-10.6,23.7-23.7,23.7s-23.7-10.6-23.7-23.7s10.6-23.7,23.7-23.7
								S1047.2,179.4,1047.2,192.5"/>
						</g>
					</g>
				</g>
				<g class="st1">
					<g>
						<defs>
							<rect id="SVGID_00000138536563608999892900000007257743248840833433_" x="1763.3" y="225.6" width="37.3" height="37.3"/>
						</defs>
						<clipPath id="SVGID_00000138551425898696938030000013526766446068546986_">
							<use xlink:href="#SVGID_00000138536563608999892900000007257743248840833433_"  style="overflow:visible;"/>
						</clipPath>
						<g style="clip-path:url(#SVGID_00000138551425898696938030000013526766446068546986_);">
							<path class="st3" d="M1800.6,244.3c0,10.3-8.4,18.7-18.7,18.7s-18.7-8.4-18.7-18.7s8.4-18.7,18.7-18.7
								S1800.6,234,1800.6,244.3"/>
						</g>
					</g>
				</g>
				<g class="st1">
					<g>
						<defs>
							<rect id="SVGID_00000054268058082853556660000000171713765440039852_" x="1627.7" y="252.6" width="25.7" height="25.7"/>
						</defs>
						<clipPath id="SVGID_00000100342964785022476500000015206849375633594499_">
							<use xlink:href="#SVGID_00000054268058082853556660000000171713765440039852_"  style="overflow:visible;"/>
						</clipPath>
						<g style="clip-path:url(#SVGID_00000100342964785022476500000015206849375633594499_);">
							<path class="st3" d="M1653.4,265.5c0,7.1-5.8,12.9-12.8,12.9s-12.8-5.8-12.8-12.9s5.8-12.8,12.8-12.8
								S1653.4,258.4,1653.4,265.5"/>
						</g>
					</g>
				</g>
				<g class="st1">
					<g>
						<defs>
							<rect id="SVGID_00000018920711237883355160000003239113529123535286_" x="1907.2" y="225.6" width="25.7" height="25.7"/>
						</defs>
						<clipPath id="SVGID_00000162340734004794431660000008322175130431250839_">
							<use xlink:href="#SVGID_00000018920711237883355160000003239113529123535286_"  style="overflow:visible;"/>
						</clipPath>
						<g style="clip-path:url(#SVGID_00000162340734004794431660000008322175130431250839_);">
							<path class="st3" d="M1932.8,238.4c0,7.1-5.8,12.9-12.8,12.9s-12.8-5.8-12.8-12.9s5.8-12.8,12.8-12.8
								S1932.8,231.4,1932.8,238.4"/>
						</g>
					</g>
				</g>
				<g class="st1">
					<g>
						<path class="st3" d="M1821.1,354.7c0,7.1-5.8,12.9-12.8,12.9s-12.8-5.8-12.8-12.9s5.8-12.8,12.8-12.8
							S1821.1,347.6,1821.1,354.7"/>
					</g>
				</g>
				<g class="st1">
					<g>
						<defs>
							<rect id="SVGID_00000047744910019205194830000011380465037477285509_" x="1597.2" y="409.8" width="25.7" height="25.7"/>
						</defs>
						<clipPath id="SVGID_00000180358728093794839790000011799717336837542290_">
							<use xlink:href="#SVGID_00000047744910019205194830000011380465037477285509_"  style="overflow:visible;"/>
						</clipPath>
						<g style="clip-path:url(#SVGID_00000180358728093794839790000011799717336837542290_);">
							<path class="st3" d="M1622.9,422.7c0,7.1-5.8,12.9-12.8,12.9s-12.8-5.8-12.8-12.9s5.8-12.8,12.8-12.8
								S1622.9,415.6,1622.9,422.7"/>
						</g>
					</g>
				</g>
				<g class="st1">
					<g>
						<defs>
							<rect id="SVGID_00000038410409744638329110000004308802995949975199_" x="1589.1" y="392.3" width="25.7" height="25.7"/>
						</defs>
						<clipPath id="SVGID_00000080927807329711187780000002117374436813386411_">
							<use xlink:href="#SVGID_00000038410409744638329110000004308802995949975199_"  style="overflow:visible;"/>
						</clipPath>
						<g style="clip-path:url(#SVGID_00000080927807329711187780000002117374436813386411_);">
							<path class="st3" d="M1614.8,405.1c0,7.1-5.8,12.9-12.8,12.9s-12.8-5.8-12.8-12.9s5.8-12.8,12.8-12.8
								S1614.8,398.1,1614.8,405.1"/>
						</g>
					</g>
				</g>
				<g class="st1">
					<g>
						<defs>
							<rect id="SVGID_00000100348740959417736210000015955638095975692192_" x="1576.2" y="379.5" width="25.7" height="25.7"/>
						</defs>
						<clipPath id="SVGID_00000137109776938529103640000017072553072917098113_">
							<use xlink:href="#SVGID_00000100348740959417736210000015955638095975692192_"  style="overflow:visible;"/>
						</clipPath>
						<g style="clip-path:url(#SVGID_00000137109776938529103640000017072553072917098113_);">
							<path class="st3" d="M1601.9,392.3c0,7.1-5.8,12.9-12.8,12.9s-12.8-5.8-12.8-12.9s5.8-12.8,12.8-12.8
								S1601.9,385.2,1601.9,392.3"/>
						</g>
					</g>
				</g>
				<path class="st64" d="M1928.3,365.3c-7.3-25.6-30.9-44.3-58.9-44.3s-50,17.6-58.1,41.9c-6.2-5.1-14.1-8.1-22.7-8.1
					c-12.6,0-23.7,6.6-30,16.5c-8.8-5-19-7.8-29.9-7.8c-29.9,0-54.8,21.4-60.2,49.8c-6.3-2.2-13-3.4-20-3.4
					c-18.9,0-35.8,8.6-47.1,22c-6.2-10.3-17.6-17.2-30.5-17.2c-6,0-11.7,1.5-16.6,4.1c-11.2-13.3-28-21.8-46.8-21.8
					c-23.5,0-43.8,13.2-54.1,32.6c-10.7-9.2-24.6-14.7-39.8-14.7c-2.6,0-5.1,0.2-7.6,0.5c-5.3-50.9-48.4-90.6-100.7-90.6
					s-93.7,38.1-100.3,87.6c-11.1-11-26.3-17.8-43.2-17.8c-13.4,0-25.9,4.4-36,11.7c-18.4-25.8-48.5-42.6-82.6-42.6
					c-9.8,0-19.2,1.4-28.2,4c-5-6-11.9-10.4-19.8-12.1c-5.4-12.8-18.1-21.8-32.8-21.8c-11.1,0-21,5.1-27.5,13
					c-15.1-26.4-43.6-44.2-76.2-44.2s-60.8,17.6-76,43.9c-12.4-12.1-29.3-19.6-48-19.6c-20.7,0-39.2,9.1-51.8,23.6
					c-8.6-3.9-18.1-6-28.2-6c-30,0-55.6,19.3-64.9,46.2c-1.2-0.1-2.5-0.2-3.8-0.2c-10.1,0-19.2,4.2-25.6,10.9
					c-11.6-8.8-26-14.1-41.7-14.1c-2.4,0-4.7,0.1-7,0.4c-8.2-20.9-28.5-35.7-52.3-35.7s-45.4,15.8-53.1,37.7
					c-7.3-3.4-15.4-5.4-24-5.4s-16.4,1.9-23.6,5.2c-9-29-36.1-50-68-50c-35.1,0-64.3,25.4-70.1,58.9c-7.8-2.9-16.1-4.5-24.9-4.5
					c-18.8,0-35.9,7.3-48.7,19.2c-7.9-30.7-35.8-53.3-68.9-53.3c-19.7,0-37.6,8-50.5,21c-9.9-27.4-36.2-46.9-67-46.9
					c-39.3,0-71.2,31.9-71.2,71.2s31.9,71.2,71.2,71.2c14.5,0,28-4.4,39.2-11.8v41.1h1920v-18.2l0,0c33.8,0,61.2-27.4,61.2-61.2
					C1981.2,395,1958.2,369.4,1928.3,365.3L1928.3,365.3z"/>
			</g>
		</g>
	</g>
</g>
</svg>
